<?xml version="1.0" encoding="UTF-8"?>
<svg width="100%" height="100%" viewBox="0 0 44 34" fill="none" xmlns="http://www.w3.org/2000/svg">
  <path fill-rule="evenodd" clip-rule="evenodd" d="M34 19.3448C34 19.6545 33.7993 19.8621 33.5 19.8621H27C26.7993 19.8621 26.6513 19.76 26.5493 19.6034L22 10.6538L15.9507 23.6903C15.8513 23.8462 15.7007 23.949 15.5493 24C15.5493 24 15.5493 24 15.5 24C15.3487 24 15.1513 23.8979 15.0987 23.7414L12.7007 19.8621H6.5C6.20067 19.8621 6 19.6545 6 19.3448C6 19.0352 6.20067 18.8276 6.5 18.8276H13C13.1513 18.8276 13.3487 18.9297 13.4013 19.0862L15.4013 22.4483L21.5 9.30966C21.5987 9.15379 21.75 9 21.9507 9C22.1513 9 22.2993 9.10207 22.4013 9.25862L27.2993 18.8276H33.5C33.7993 18.8276 34 19.0352 34 19.3448Z" fill="#54D0FF" stroke="#54D0FF" stroke-width="0.8"/>
</svg>
