<?xml version="1.0" encoding="UTF-8"?>
<svg width="100%" height="100%" viewBox="0 0 44 34" fill="none" xmlns="http://www.w3.org/2000/svg">
  <path fill-rule="evenodd" clip-rule="evenodd" d="M21.6588 15.6393C22.3476 15.3715 22.7974 14.6834 22.7678 13.9363C22.7362 13.0399 22.0182 12.2928 21.0887 12.2649C20.6078 12.2354 20.158 12.4143 19.799 12.7426C19.438 13.0709 19.2585 13.5192 19.2585 13.9973H18C18 13.1598 18.3294 12.3832 18.9291 11.8151C19.5288 11.2469 20.3375 10.9481 21.1187 11.0074C22.6475 11.0664 23.9372 12.3522 23.9967 13.8758C24.0559 15.1611 23.3063 16.327 22.107 16.8047C21.8367 16.9246 21.6276 17.2529 21.6276 17.5816V18H20.3691V17.5816C20.3691 16.7146 20.8796 15.9381 21.6588 15.6393ZM22 21C22 22.3333 20 22.3333 20 21C20 19.6667 22 19.6667 22 21ZM34 16.5C34 9.60123 28.397 4 21.5 4C14.6012 4 9 9.60123 9 16.5C9 23.3988 14.6012 29 21.5 29C28.3988 29 34 23.3988 34 16.5ZM10.3593 16.5C10.3593 10.3789 15.3469 5.35929 21.5 5.35929C27.6531 5.35929 32.6407 10.3789 32.6407 16.5C32.6407 22.6211 27.6211 27.6407 21.5 27.6407C15.3789 27.6407 10.3593 22.6211 10.3593 16.5Z" fill="#54D0FF"/>
  <path d="M22.7678 13.9363L22.5679 13.9434L22.568 13.9443L22.7678 13.9363ZM21.6588 15.6393L21.7304 15.826L21.7313 15.8257L21.6588 15.6393ZM21.0887 12.2649L21.0765 12.4646L21.0827 12.4648L21.0887 12.2649ZM19.799 12.7426L19.9336 12.8906L19.934 12.8902L19.799 12.7426ZM19.2585 13.9973V14.1973H19.4585V13.9973H19.2585ZM18 13.9973H17.8V14.1973H18V13.9973ZM18.9291 11.8151L18.7915 11.6699L18.7915 11.6699L18.9291 11.8151ZM21.1187 11.0074L21.1035 11.207L21.111 11.2073L21.1187 11.0074ZM23.9967 13.8758L23.7969 13.8836L23.7969 13.885L23.9967 13.8758ZM22.107 16.8047L22.0329 16.6187L22.0258 16.6219L22.107 16.8047ZM21.6276 18V18.2H21.8276V18H21.6276ZM20.3691 18H20.1691V18.2H20.3691V18ZM22.568 13.9443C22.5942 14.6068 22.1948 15.2163 21.5863 15.4528L21.7313 15.8257C22.5005 15.5267 23.0006 14.76 22.9676 13.9284L22.568 13.9443ZM21.0827 12.4648C21.9043 12.4895 22.54 13.1496 22.5679 13.9434L22.9677 13.9293C22.9325 12.9301 22.1321 12.0961 21.0947 12.065L21.0827 12.4648ZM19.934 12.8902C20.2576 12.5942 20.6556 12.4387 21.0765 12.4645L21.101 12.0653C20.56 12.0321 20.0584 12.2344 19.664 12.595L19.934 12.8902ZM19.4585 13.9973C19.4585 13.5706 19.6177 13.1778 19.9336 12.8906L19.6645 12.5947C19.2583 12.964 19.0585 13.4677 19.0585 13.9973H19.4585ZM18 14.1973H19.2585V13.7973H18V14.1973ZM18.7915 11.6699C18.1512 12.2766 17.8 13.106 17.8 13.9973H18.2C18.2 13.2135 18.5077 12.4898 19.0667 11.9602L18.7915 11.6699ZM21.1339 10.808C20.2929 10.7441 19.4296 11.0654 18.7915 11.6699L19.0667 11.9602C19.628 11.4284 20.3822 11.152 21.1035 11.2069L21.1339 10.808ZM24.1966 13.868C24.1329 12.2395 22.759 10.8706 21.1264 10.8076L21.111 11.2073C22.5359 11.2622 23.7414 12.4648 23.7969 13.8836L24.1966 13.868ZM22.181 16.9905C23.4596 16.4812 24.2596 15.237 24.1965 13.8666L23.7969 13.885C23.8522 15.0853 23.153 16.1727 22.033 16.6189L22.181 16.9905ZM21.8276 17.5816C21.8276 17.3257 21.9957 17.0729 22.1881 16.9875L22.0258 16.6219C21.6777 16.7764 21.4276 17.1802 21.4276 17.5816H21.8276ZM21.8276 18V17.5816H21.4276V18H21.8276ZM20.3691 18.2H21.6276V17.8H20.3691V18.2ZM20.1691 17.5816V18H20.5691V17.5816H20.1691ZM21.5872 15.4525C20.7255 15.783 20.1691 16.6375 20.1691 17.5816H20.5691C20.5691 16.7917 21.0338 16.0932 21.7304 15.826L21.5872 15.4525ZM21.8 21C21.8 21.2791 21.6973 21.4737 21.5546 21.6005C21.4082 21.7306 21.2074 21.8 21 21.8C20.7926 21.8 20.5918 21.7306 20.4454 21.6005C20.3027 21.4737 20.2 21.2791 20.2 21H19.8C19.8 21.3876 19.9473 21.693 20.1796 21.8995C20.4082 22.1027 20.7074 22.2 21 22.2C21.2926 22.2 21.5918 22.1027 21.8204 21.8995C22.0527 21.693 22.2 21.3876 22.2 21H21.8ZM20.2 21C20.2 20.7209 20.3027 20.5263 20.4454 20.3995C20.5918 20.2694 20.7926 20.2 21 20.2C21.2074 20.2 21.4082 20.2694 21.5546 20.3995C21.6973 20.5263 21.8 20.7209 21.8 21H22.2C22.2 20.6124 22.0527 20.307 21.8204 20.1005C21.5918 19.8973 21.2926 19.8 21 19.8C20.7074 19.8 20.4082 19.8973 20.1796 20.1005C19.9473 20.307 19.8 20.6124 19.8 21H20.2ZM34.2 16.5C34.2 9.49075 28.5075 3.8 21.5 3.8V4.2C28.2866 4.2 33.8 9.7117 33.8 16.5H34.2ZM21.5 3.8C14.4908 3.8 8.8 9.49077 8.8 16.5H9.2C9.2 9.71169 14.7117 4.2 21.5 4.2V3.8ZM8.8 16.5C8.8 23.5092 14.4908 29.2 21.5 29.2V28.8C14.7117 28.8 9.2 23.2883 9.2 16.5H8.8ZM21.5 29.2C28.5092 29.2 34.2 23.5092 34.2 16.5H33.8C33.8 23.2883 28.2883 28.8 21.5 28.8V29.2ZM10.5593 16.5C10.5593 10.489 15.4578 5.55929 21.5 5.55929V5.15929C15.2361 5.15929 10.1593 10.2688 10.1593 16.5H10.5593ZM21.5 5.55929C27.5422 5.55929 32.4407 10.489 32.4407 16.5H32.8407C32.8407 10.2688 27.7639 5.15929 21.5 5.15929V5.55929ZM32.4407 16.5C32.4407 22.5107 27.5107 27.4407 21.5 27.4407V27.8407C27.7316 27.8407 32.8407 22.7316 32.8407 16.5H32.4407ZM21.5 27.4407C15.4893 27.4407 10.5593 22.5107 10.5593 16.5H10.1593C10.1593 22.7316 15.2684 27.8407 21.5 27.8407V27.4407Z" fill="#54D0FF"/>
</svg>

