<?xml version="1.0" encoding="UTF-8"?>
<svg width="100%" height="100%" viewBox="0 0 44 34" fill="none" xmlns="http://www.w3.org/2000/svg">
  <path fill-rule="evenodd" clip-rule="evenodd" d="M30.259 7.82204C29.7308 7.66056 29.1718 7.95782 29.0103 8.48597L23.7476 25.6995C23.5861 26.2276 23.8834 26.7867 24.4115 26.9481C24.9397 27.1096 25.4987 26.8124 25.6602 26.2842L30.9229 9.07071C31.0844 8.54256 30.7871 7.98351 30.259 7.82204ZM23.0046 15.3254L14.0547 15.3253L17.3821 12.0312C17.7486 11.6833 17.7486 11.0976 17.3821 10.7348C17.0181 10.3744 16.4462 10.3744 16.0815 10.7345L11.5331 15.2374C11.2633 15.4911 11.1074 15.8631 11.1074 16.242C11.1074 16.6168 11.2607 16.9766 11.5327 17.2468L16.0787 21.7393C16.2668 21.9141 16.4959 22.0033 16.7347 22.0033C16.9745 22.0033 17.2068 21.91 17.3794 21.7392C17.7459 21.3923 17.7459 20.8066 17.3797 20.443L14.052 17.1486H23.0116C23.5292 17.1486 24.0409 16.7413 24.0409 16.2346C24.0409 15.723 23.5223 15.3132 23.0046 15.3254Z" fill="#54D0FF"/>
</svg>
